<?xml version="1.0" encoding="UTF-8" standalone="no"?>
<svg width="303px" height="304px" viewBox="0 0 303 304" version="1.1" xmlns="http://www.w3.org/2000/svg" xmlns:xlink="http://www.w3.org/1999/xlink" xmlns:sketch="http://www.bohemiancoding.com/sketch/ns">
    <!-- Generator: Sketch 3.3 (11970) - http://www.bohemiancoding.com/sketch -->
    <title>gym-curtains-opt copy</title>
    <desc>Created with Sketch.</desc>
    <defs></defs>
    <g id="Page-1" stroke="none" stroke-width="1" fill="none" fill-rule="evenodd" sketch:type="MSPage">
        <g id="gym-curtains-opt" sketch:type="MSLayerGroup" transform="translate(1.000000, 2.000000)">
            <g id="Page-1" sketch:type="MSShapeGroup">
                <rect id="mesh" stroke="#4A4A4A" stroke-width="2" fill="#FFFFFF" x="1" y="0.6" width="300" height="300"></rect>
                <path d="M1.10087734,288.5 L300.899123,288.5" id="bottomSeam" stroke="#FFFFFF"></path>
                <rect id="Rectangle-3" fill="#FFFFFF" x="2" y="1.8" width="298" height="16.2"></rect>
                <g id="grid" transform="translate(3.000000, 19.000000)" stroke="#CCCCCC" stroke-width="0.5">
                    <path d="M0.5,37.2 L295.5,37.2" id="Line"></path>
                    <path d="M0.5,31.2 L295.5,31.2" id="Line-Copy"></path>
                    <path d="M0.5,25.2 L295.5,25.2" id="Line-Copy-2"></path>
                    <path d="M0.5,13.2 L295.5,13.2" id="Line-Copy-3"></path>
                    <path d="M0.5,7.2 L295.5,7.2" id="Line-Copy-5"></path>
                    <path d="M0.5,1.2 L295.5,1.2" id="Line-Copy-6"></path>
                    <path d="M0.5,19.2 L295.5,19.2" id="Line-Copy-4"></path>
                    <path d="M0.5,79.2 L295.5,79.2" id="Line-Copy-13"></path>
                    <path d="M0.5,73.2 L295.5,73.2" id="Line-Copy-7"></path>
                    <path d="M0.5,67.2 L295.5,67.2" id="Line-Copy-8"></path>
                    <path d="M0.5,55.2 L295.5,55.2" id="Line-Copy-9"></path>
                    <path d="M0.5,49.2 L295.5,49.2" id="Line-Copy-10"></path>
                    <path d="M0.5,43.2 L295.5,43.2" id="Line-Copy-11"></path>
                    <path d="M0.5,61.2 L295.5,61.2" id="Line-Copy-12"></path>
                    <path d="M0.5,121.2 L295.5,121.2" id="Line-Copy-20"></path>
                    <path d="M0.5,115.2 L295.5,115.2" id="Line-Copy-14"></path>
                    <path d="M0.5,109.2 L295.5,109.2" id="Line-Copy-15"></path>
                    <path d="M0.5,97.2 L295.5,97.2" id="Line-Copy-16"></path>
                    <path d="M0.5,91.2 L295.5,91.2" id="Line-Copy-17"></path>
                    <path d="M0.5,85.2 L295.5,85.2" id="Line-Copy-18"></path>
                    <path d="M0.5,103.2 L295.5,103.2" id="Line-Copy-19"></path>
                    <path d="M0.5,157.2 L295.5,157.2" id="Line-Copy-40"></path>
                    <path d="M0.5,151.2 L295.5,151.2" id="Line-Copy-21"></path>
                    <path d="M0.5,139.2 L295.5,139.2" id="Line-Copy-22"></path>
                    <path d="M0.5,133.2 L295.5,133.2" id="Line-Copy-23"></path>
                    <path d="M0.5,127.2 L295.5,127.2" id="Line-Copy-24"></path>
                    <path d="M0.5,145.2 L295.5,145.2" id="Line-Copy-25"></path>
                    <path d="M0.5,205.2 L295.5,205.2" id="Line-Copy-26"></path>
                    <path d="M0.5,199.2 L295.5,199.2" id="Line-Copy-27"></path>
                    <path d="M0.5,193.2 L295.5,193.2" id="Line-Copy-28"></path>
                    <path d="M0.5,181.2 L295.5,181.2" id="Line-Copy-29"></path>
                    <path d="M0.5,175.2 L295.5,175.2" id="Line-Copy-30"></path>
                    <path d="M0.5,169.2 L295.5,169.2" id="Line-Copy-31"></path>
                    <path d="M0.5,163.2 L295.5,163.2" id="Line-Copy-41"></path>
                    <path d="M0.5,187.2 L295.5,187.2" id="Line-Copy-32"></path>
                    <path d="M0.5,247.2 L295.5,247.2" id="Line-Copy-33"></path>
                    <path d="M0.5,241.2 L295.5,241.2" id="Line-Copy-34"></path>
                    <path d="M0.5,253.2 L295.5,253.2" id="Line-Copy-42"></path>
                    <path d="M0.5,265.2 L295.5,265.2" id="Line-Copy-43"></path>
                    <path d="M0.5,271.2 L295.5,271.2" id="Line-Copy-45"></path>
                    <path d="M0.5,277.2 L295.5,277.2" id="Line-Copy-95"></path>
                    <path d="M0.3,259.2 L295.3,259.2" id="Line-Copy-44"></path>
                    <path d="M0.5,235.2 L295.5,235.2" id="Line-Copy-35"></path>
                    <path d="M0.5,223.2 L295.5,223.2" id="Line-Copy-36"></path>
                    <path d="M0.5,217.2 L295.5,217.2" id="Line-Copy-37"></path>
                    <path d="M0.5,211.2 L295.5,211.2" id="Line-Copy-38"></path>
                    <path d="M0.5,229.2 L295.5,229.2" id="Line-Copy-39"></path>
                    <path d="M5.2,0.5 L5.2,279.5" id="Line"></path>
                    <path d="M0.2,0.5 L0.2,279.5" id="Line-Copy-94"></path>
                    <path d="M17.2,0.5 L17.2,279.5" id="Line-Copy-47"></path>
                    <path d="M23.2,0.5 L23.2,279.5" id="Line-Copy-48"></path>
                    <path d="M11.2,0.5 L11.2,279.5" id="Line-Copy-46"></path>
                    <path d="M29.2,0.5 L29.2,279.5" id="Line-Copy-52"></path>
                    <path d="M41.2,0.5 L41.2,279.5" id="Line-Copy-49"></path>
                    <path d="M47.2,0.5 L47.2,279.5" id="Line-Copy-50"></path>
                    <path d="M35.2,0.5 L35.2,279.5" id="Line-Copy-51"></path>
                    <path d="M53.2,0.5 L53.2,279.5" id="Line-Copy-60"></path>
                    <path d="M65.2,0.5 L65.2,279.5" id="Line-Copy-53"></path>
                    <path d="M71.2,0.5 L71.2,279.5" id="Line-Copy-54"></path>
                    <path d="M59.2,0.5 L59.2,279.5" id="Line-Copy-55"></path>
                    <path d="M77.2,0.5 L77.2,279.5" id="Line-Copy-56"></path>
                    <path d="M89.2,0.5 L89.2,279.5" id="Line-Copy-57"></path>
                    <path d="M95.2,0.5 L95.2,279.5" id="Line-Copy-58"></path>
                    <path d="M83.2,0.5 L83.2,279.5" id="Line-Copy-59"></path>
                    <path d="M101.2,0.5 L101.2,279.5" id="Line-Copy-76"></path>
                    <path d="M197.2,1.5 L197.2,280.5" id="Line-Copy-77"></path>
                    <path d="M113.2,0.5 L113.2,279.5" id="Line-Copy-61"></path>
                    <path d="M209.2,1.5 L209.2,280.5" id="Line-Copy-78"></path>
                    <path d="M119.2,0.5 L119.2,279.5" id="Line-Copy-62"></path>
                    <path d="M215.2,1.5 L215.2,280.5" id="Line-Copy-79"></path>
                    <path d="M107.2,0.5 L107.2,279.5" id="Line-Copy-63"></path>
                    <path d="M203.2,1.5 L203.2,280.5" id="Line-Copy-80"></path>
                    <path d="M125.2,0.5 L125.2,279.5" id="Line-Copy-64"></path>
                    <path d="M221.2,1.5 L221.2,280.5" id="Line-Copy-81"></path>
                    <path d="M137.2,0.5 L137.2,279.5" id="Line-Copy-65"></path>
                    <path d="M233.2,1.5 L233.2,280.5" id="Line-Copy-82"></path>
                    <path d="M143.2,0.5 L143.2,279.5" id="Line-Copy-66"></path>
                    <path d="M239.2,1.5 L239.2,280.5" id="Line-Copy-83"></path>
                    <path d="M131.2,0.5 L131.2,279.5" id="Line-Copy-67"></path>
                    <path d="M227.2,1.5 L227.2,280.5" id="Line-Copy-84"></path>
                    <path d="M149.2,0.5 L149.2,279.5" id="Line-Copy-68"></path>
                    <path d="M245.2,1.5 L245.2,280.5" id="Line-Copy-85"></path>
                    <path d="M161.2,0.5 L161.2,279.5" id="Line-Copy-69"></path>
                    <path d="M257.2,1.5 L257.2,280.5" id="Line-Copy-86"></path>
                    <path d="M167.2,0.5 L167.2,279.5" id="Line-Copy-70"></path>
                    <path d="M263.2,1.5 L263.2,280.5" id="Line-Copy-87"></path>
                    <path d="M155.2,0.5 L155.2,279.5" id="Line-Copy-71"></path>
                    <path d="M251.2,1.5 L251.2,280.5" id="Line-Copy-88"></path>
                    <path d="M173.2,0.5 L173.2,279.5" id="Line-Copy-72"></path>
                    <path d="M269.2,1.5 L269.2,280.5" id="Line-Copy-89"></path>
                    <path d="M185.2,0.5 L185.2,279.5" id="Line-Copy-73"></path>
                    <path d="M281.2,1.5 L281.2,280.5" id="Line-Copy-90"></path>
                    <path d="M191.2,0.5 L191.2,279.5" id="Line-Copy-74"></path>
                    <path d="M287.2,1.5 L287.2,280.5" id="Line-Copy-91"></path>
                    <path d="M292.2,1.5 L292.2,280.5" id="Line-Copy-93"></path>
                    <path d="M179.2,0.5 L179.2,279.5" id="Line-Copy-75"></path>
                    <path d="M275.2,1.5 L275.2,280.5" id="Line-Copy-92"></path>
                </g>
                <rect id="vinyl" stroke="#4A4A4A" stroke-width="2" fill="#E95E5E" x="0.75" y="150.8" width="300" height="150"></rect>
                <g id="top-seam" transform="translate(2.000000, 0.000000)">
                    <rect id="grommet-backing" stroke="#4A4A4A" stroke-width="2" fill="#FFFFFF" x="0" y="0" width="298" height="18"></rect>
                    <g id="grommets" transform="translate(11.000000, 4.000000)" stroke="#979797">
                        <g id="Oval-1-+-Oval-1">
                            <path d="M6,12 C9.3,12 12,9.3 12,6 C12,2.7 9.3,0 6,0 C2.7,0 0,2.7 0,6 C0,9.3 2.7,12 6,12 Z M6,9 C7.7,9 9,7.7 9,6 C9,4.3 7.7,3 6,3 C4.4,3 3,4.3 3,6 C3,7.7 4.3,9 6,9 Z" id="Oval-1" fill="#E6E2E2"></path>
                            <circle id="Oval-1" fill="#FFFFFF" cx="6" cy="6" r="3"></circle>
                        </g>
                        <g id="Oval-1-Copy-+-Oval-1-Copy" transform="translate(23.000000, 0.000000)">
                            <path d="M6.9,12.2 C10.2,12.2 12.8,9.5 12.8,6.2 C12.9,2.9 10.2,0.2 6.8,0.2 C3.5,0.2 0.8,2.9 0.8,6.2 C0.8,9.5 3.5,12.2 6.8,12.2 L6.9,12.2 Z M6.9,9.2 C8.5,9.2 9.8,7.9 9.8,6.2 C9.9,4.5 8.5,3.2 6.8,3.2 C5.2,3.2 3.8,4.5 3.8,6.2 C3.9,7.9 5.2,9.2 6.8,9.2 L6.9,9.2 Z" id="Oval-1-Copy" fill="#E6E2E2"></path>
                            <circle id="Oval-1-Copy" fill="#FFFFFF" cx="6.80134533" cy="6.2" r="3"></circle>
                        </g>
                        <g id="Oval-1-Copy-2-+-Oval-1-Copy-2" transform="translate(47.000000, 0.000000)">
                            <path d="M6.9,12.2 C10.2,12.2 12.9,9.5 12.9,6.2 C12.9,2.9 10.2,0.2 6.9,0.2 C3.6,0.2 0.9,2.9 0.9,6.2 C0.9,9.5 3.6,12.2 6.9,12.2 L6.9,12.2 Z M6.9,9.2 C8.5,9.2 9.9,7.9 9.9,6.2 C9.9,4.5 8.5,3.2 6.9,3.2 C5.2,3.2 3.9,4.5 3.9,6.2 C3.9,7.9 5.2,9.2 6.9,9.2 L6.9,9.2 Z" id="Oval-1-Copy-2" fill="#E6E2E2"></path>
                            <circle id="Oval-1-Copy-2" fill="#FFFFFF" cx="6.9" cy="6.2" r="3"></circle>
                        </g>
                        <g id="Oval-1-Copy-3-+-Oval-1-Copy-3" transform="translate(71.000000, 0.000000)">
                            <path d="M6.9,12.2 C10.2,12.2 12.9,9.5 12.9,6.2 C12.9,2.9 10.2,0.2 6.9,0.2 C3.6,0.2 0.9,2.9 0.9,6.2 C0.9,9.5 3.6,12.2 6.9,12.2 L6.9,12.2 Z M6.9,9.2 C8.6,9.2 9.9,7.9 9.9,6.2 C9.9,4.5 8.6,3.2 6.9,3.2 C5.3,3.2 3.9,4.5 3.9,6.2 C3.9,7.9 5.2,9.2 6.9,9.2 L6.9,9.2 Z" id="Oval-1-Copy-3" fill="#E6E2E2"></path>
                            <circle id="Oval-1-Copy-3" fill="#FFFFFF" cx="6.9" cy="6.2" r="3"></circle>
                        </g>
                        <g id="Oval-1-Copy-4-+-Oval-1-Copy-4" transform="translate(95.000000, 0.000000)">
                            <path d="M7,12.2 C10.3,12.2 12.9,9.5 12.9,6.2 C13,2.9 10.3,0.2 6.9,0.2 C3.6,0.2 0.9,2.9 0.9,6.2 C0.9,9.5 3.6,12.2 6.9,12.2 L7,12.2 Z M7,9.2 C8.6,9.2 9.9,7.9 9.9,6.2 C10,4.5 8.6,3.2 6.9,3.2 C5.3,3.2 3.9,4.5 3.9,6.2 C3.9,7.9 5.3,9.2 6.9,9.2 L7,9.2 Z" id="Oval-1-Copy-4" fill="#E6E2E2"></path>
                            <circle id="Oval-1-Copy-4" fill="#FFFFFF" cx="6.90134533" cy="6.2" r="3"></circle>
                        </g>
                        <g id="Oval-1-Copy-5-+-Oval-1-Copy-5" transform="translate(120.000000, 0.000000)">
                            <path d="M6,12.2 C9.3,12.2 12,9.5 12,6.2 C12,2.9 9.3,0.2 6,0.2 C2.7,0.2 0,2.9 0,6.2 C0,9.5 2.6,12.2 6,12.2 L6,12.2 Z M6,9.2 C7.6,9.2 9,7.9 9,6.2 C9,4.5 7.6,3.2 6,3.2 C4.3,3.2 3,4.5 3,6.2 C3,7.9 4.3,9.2 6,9.2 L6,9.2 Z" id="Oval-1-Copy-5" fill="#E6E2E2"></path>
                            <circle id="Oval-1-Copy-5" fill="#FFFFFF" cx="6" cy="6.2" r="3"></circle>
                        </g>
                        <g id="Oval-1-Copy-6-+-Oval-1-Copy-6" transform="translate(144.000000, 0.000000)">
                            <path d="M6,12.2 C9.3,12.2 12,9.5 12,6.2 C12,2.9 9.3,0.2 6,0.2 C2.7,0.2 0,2.9 0,6.2 C0,9.5 2.7,12.2 6,12.2 L6,12.2 Z M6,9.2 C7.7,9.2 9,7.9 9,6.2 C9,4.5 7.7,3.2 6,3.2 C4.4,3.2 3,4.5 3,6.2 C3,7.9 4.3,9.2 6,9.2 L6,9.2 Z" id="Oval-1-Copy-6" fill="#E6E2E2"></path>
                            <circle id="Oval-1-Copy-6" fill="#FFFFFF" cx="6" cy="6.2" r="3"></circle>
                        </g>
                        <g id="Oval-1-Copy-7-+-Oval-1-Copy-7" transform="translate(168.000000, 0.000000)">
                            <path d="M6,12.2 C9.4,12.2 12,9.5 12,6.2 C12.1,2.9 9.3,0.2 6,0.2 C2.7,0.2 0,2.9 0,6.2 C0,9.5 2.7,12.2 6,12.2 L6,12.2 Z M6,9.2 C7.7,9.2 9,7.9 9,6.2 C9.1,4.5 7.7,3.2 6,3.2 C4.4,3.2 3,4.5 3,6.2 C3,7.9 4.4,9.2 6,9.2 L6,9.2 Z" id="Oval-1-Copy-7" fill="#E6E2E2"></path>
                            <circle id="Oval-1-Copy-7" fill="#FFFFFF" cx="6.00129932" cy="6.2" r="3"></circle>
                        </g>
                        <g id="Oval-1-Copy-8-+-Oval-1-Copy-8" transform="translate(192.000000, 0.000000)">
                            <path d="M6.1,12.2 C9.4,12.2 12.1,9.5 12.1,6.2 C12.1,2.9 9.4,0.2 6.1,0.2 C2.8,0.2 0.1,2.9 0.1,6.2 C0.1,9.5 2.7,12.2 6.1,12.2 L6.1,12.2 Z M6.1,9.2 C7.7,9.2 9.1,7.9 9.1,6.2 C9.1,4.5 7.7,3.2 6.1,3.2 C4.4,3.2 3.1,4.5 3.1,6.2 C3.1,7.9 4.4,9.2 6.1,9.2 L6.1,9.2 Z" id="Oval-1-Copy-8" fill="#E6E2E2"></path>
                            <circle id="Oval-1-Copy-8" fill="#FFFFFF" cx="6.1" cy="6.2" r="3"></circle>
                        </g>
                        <g id="Oval-1-Copy-9-+-Oval-1-Copy-9" transform="translate(216.000000, 0.000000)">
                            <path d="M6.1,12.2 C9.4,12.2 12.1,9.5 12.1,6.2 C12.1,2.9 9.4,0.2 6.1,0.2 C2.8,0.2 0.1,2.9 0.1,6.2 C0.1,9.5 2.8,12.2 6.1,12.2 L6.1,12.2 Z M6.1,9.2 C7.8,9.2 9.1,7.9 9.1,6.2 C9.1,4.5 7.8,3.2 6.1,3.2 C4.5,3.2 3.1,4.5 3.1,6.2 C3.1,7.9 4.4,9.2 6.1,9.2 L6.1,9.2 Z" id="Oval-1-Copy-9" fill="#E6E2E2"></path>
                            <circle id="Oval-1-Copy-9" fill="#FFFFFF" cx="6.1" cy="6.2" r="3"></circle>
                        </g>
                        <g id="Oval-1-Copy-10-+-Oval-1-Copy-10" transform="translate(240.000000, 0.000000)">
                            <path d="M6.1,12.2 C9.5,12.2 12.1,9.5 12.1,6.2 C12.2,2.9 9.4,0.2 6.1,0.2 C2.8,0.2 0.1,2.9 0.1,6.2 C0.1,9.5 2.8,12.2 6.1,12.2 L6.1,12.2 Z M6.1,9.2 C7.8,9.2 9.1,7.9 9.1,6.2 C9.1,4.5 7.8,3.2 6.1,3.2 C4.5,3.2 3.1,4.5 3.1,6.2 C3.1,7.9 4.5,9.2 6.1,9.2 L6.1,9.2 Z" id="Oval-1-Copy-10" fill="#E6E2E2"></path>
                            <circle id="Oval-1-Copy-10" fill="#FFFFFF" cx="6.10129932" cy="6.2" r="3"></circle>
                        </g>
                        <g id="Oval-1-Copy-11-+-Oval-1-Copy-11" transform="translate(264.000000, 0.000000)">
                            <path d="M6.2,12.2 C9.5,12.2 12.2,9.5 12.2,6.2 C12.2,2.9 9.5,0.2 6.2,0.2 C2.9,0.2 0.2,2.9 0.2,6.2 C0.2,9.5 2.8,12.2 6.2,12.2 L6.2,12.2 Z M6.2,9.2 C7.8,9.2 9.2,7.9 9.2,6.2 C9.2,4.5 7.8,3.2 6.2,3.2 C4.5,3.2 3.2,4.5 3.2,6.2 C3.2,7.9 4.5,9.2 6.2,9.2 L6.2,9.2 Z" id="Oval-1-Copy-11" fill="#E6E2E2"></path>
                            <circle id="Oval-1-Copy-11" fill="#FFFFFF" cx="6.2" cy="6.2" r="3"></circle>
                        </g>
                    </g>
                </g>
                <path d="M1.75,301 L299.75,301" id="Line" stroke="#4A4A4A" stroke-width="2" stroke-linecap="square"></path>
            </g>
        </g>
    </g>
</svg>