<?xml version="1.0" encoding="UTF-8" standalone="no"?>
<svg width="302px" height="301px" viewBox="0 0 302 301" version="1.1" xmlns="http://www.w3.org/2000/svg" xmlns:xlink="http://www.w3.org/1999/xlink" xmlns:sketch="http://www.bohemiancoding.com/sketch/ns">
    <!-- Generator: Sketch 3.3 (11970) - http://www.bohemiancoding.com/sketch -->
    <title>gym-curtain</title>
    <desc>Created with Sketch.</desc>
    <defs></defs>
    <g id="Page-1" stroke="none" stroke-width="1" fill="none" fill-rule="evenodd" sketch:type="MSPage">
        <rect id="mesh" stroke="#4A4A4A" stroke-width="2" sketch:type="MSShapeGroup" x="0.80078125" y="0.6015625" width="300" height="299.998446"></rect>
        <path d="M1.10117969,288.5 L300.899425,288.5" id="bottomSeam" stroke="#FFFFFF" stroke-linecap="square" sketch:type="MSShapeGroup"></path>
        <path d="M2.10117969,19 L299.901167,19" id="topSeam" stroke="#979797" stroke-width="2" stroke-linecap="square" sketch:type="MSShapeGroup"></path>
        <rect id="Rectangle-3" fill="#FFFFFF" sketch:type="MSShapeGroup" x="2.002375" y="1.80315625" width="297.99525" height="16.2215156"></rect>
        <g id="grommets" sketch:type="MSLayerGroup" transform="translate(12.816719, 4.206344)" stroke="#979797" fill="#E6E2E2">
            <path d="M6.00796875,12.0159375 C9.32607827,12.0159375 12.0159375,9.32607827 12.0159375,6.00796875 C12.0159375,2.68985923 9.32607827,0 6.00796875,0 C2.68985923,0 0,2.68985923 0,6.00796875 C0,9.32607827 2.68985923,12.0159375 6.00796875,12.0159375 Z M6.00796875,9.01195312 C7.66702351,9.01195312 9.01195312,7.66702351 9.01195312,6.00796875 C9.01195312,4.34891399 7.66702351,3.00398437 6.00796875,3.00398437 C4.34891399,3.00398437 3.00398437,4.34891399 3.00398437,6.00796875 C3.00398437,7.66702351 4.34891399,9.01195312 6.00796875,9.01195312 Z" id="Oval-1" sketch:type="MSShapeGroup"></path>
            <path d="M30.0398437,12.0159375 C33.3579533,12.0159375 36.0478125,9.32607827 36.0478125,6.00796875 C36.0478125,2.68985923 33.3579533,0 30.0398437,0 C26.7217342,0 24.031875,2.68985923 24.031875,6.00796875 C24.031875,9.32607827 26.7217342,12.0159375 30.0398437,12.0159375 Z M30.0398437,9.01195312 C31.6988985,9.01195312 33.0438281,7.66702351 33.0438281,6.00796875 C33.0438281,4.34891399 31.6988985,3.00398437 30.0398437,3.00398437 C28.380789,3.00398437 27.0358594,4.34891399 27.0358594,6.00796875 C27.0358594,7.66702351 28.380789,9.01195312 30.0398437,9.01195312 Z" id="Oval-1-Copy" sketch:type="MSShapeGroup"></path>
            <path d="M54.0717188,12.0159375 C57.3898283,12.0159375 60.0796875,9.32607827 60.0796875,6.00796875 C60.0796875,2.68985923 57.3898283,0 54.0717188,0 C50.7536092,0 48.06375,2.68985923 48.06375,6.00796875 C48.06375,9.32607827 50.7536092,12.0159375 54.0717188,12.0159375 Z M54.0717188,9.01195312 C55.7307735,9.01195312 57.0757031,7.66702351 57.0757031,6.00796875 C57.0757031,4.34891399 55.7307735,3.00398437 54.0717188,3.00398437 C52.412664,3.00398437 51.0677344,4.34891399 51.0677344,6.00796875 C51.0677344,7.66702351 52.412664,9.01195312 54.0717188,9.01195312 Z" id="Oval-1-Copy-2" sketch:type="MSShapeGroup"></path>
            <path d="M78.1035938,12.0159375 C81.4217033,12.0159375 84.1115625,9.32607827 84.1115625,6.00796875 C84.1115625,2.68985923 81.4217033,0 78.1035938,0 C74.7854842,0 72.095625,2.68985923 72.095625,6.00796875 C72.095625,9.32607827 74.7854842,12.0159375 78.1035938,12.0159375 Z M78.1035938,9.01195312 C79.7626485,9.01195312 81.1075781,7.66702351 81.1075781,6.00796875 C81.1075781,4.34891399 79.7626485,3.00398437 78.1035938,3.00398437 C76.444539,3.00398437 75.0996094,4.34891399 75.0996094,6.00796875 C75.0996094,7.66702351 76.444539,9.01195312 78.1035938,9.01195312 Z" id="Oval-1-Copy-3" sketch:type="MSShapeGroup"></path>
            <path d="M102.135469,12.0159375 C105.453578,12.0159375 108.143438,9.32607827 108.143438,6.00796875 C108.143438,2.68985923 105.453578,0 102.135469,0 C98.8173592,0 96.1275,2.68985923 96.1275,6.00796875 C96.1275,9.32607827 98.8173592,12.0159375 102.135469,12.0159375 Z M102.135469,9.01195312 C103.794524,9.01195312 105.139453,7.66702351 105.139453,6.00796875 C105.139453,4.34891399 103.794524,3.00398437 102.135469,3.00398437 C100.476414,3.00398437 99.1314844,4.34891399 99.1314844,6.00796875 C99.1314844,7.66702351 100.476414,9.01195312 102.135469,9.01195312 Z" id="Oval-1-Copy-4" sketch:type="MSShapeGroup"></path>
            <path d="M126.167344,12.0159375 C129.485453,12.0159375 132.175312,9.32607827 132.175312,6.00796875 C132.175312,2.68985923 129.485453,0 126.167344,0 C122.849234,0 120.159375,2.68985923 120.159375,6.00796875 C120.159375,9.32607827 122.849234,12.0159375 126.167344,12.0159375 Z M126.167344,9.01195312 C127.826399,9.01195312 129.171328,7.66702351 129.171328,6.00796875 C129.171328,4.34891399 127.826399,3.00398437 126.167344,3.00398437 C124.508289,3.00398437 123.163359,4.34891399 123.163359,6.00796875 C123.163359,7.66702351 124.508289,9.01195312 126.167344,9.01195312 Z" id="Oval-1-Copy-5" sketch:type="MSShapeGroup"></path>
            <path d="M150.199219,12.0159375 C153.517328,12.0159375 156.207188,9.32607827 156.207188,6.00796875 C156.207188,2.68985923 153.517328,0 150.199219,0 C146.881109,0 144.19125,2.68985923 144.19125,6.00796875 C144.19125,9.32607827 146.881109,12.0159375 150.199219,12.0159375 Z M150.199219,9.01195312 C151.858274,9.01195312 153.203203,7.66702351 153.203203,6.00796875 C153.203203,4.34891399 151.858274,3.00398437 150.199219,3.00398437 C148.540164,3.00398437 147.195234,4.34891399 147.195234,6.00796875 C147.195234,7.66702351 148.540164,9.01195312 150.199219,9.01195312 Z" id="Oval-1-Copy-6" sketch:type="MSShapeGroup"></path>
            <path d="M174.231094,12.0159375 C177.549203,12.0159375 180.239063,9.32607827 180.239063,6.00796875 C180.239063,2.68985923 177.549203,0 174.231094,0 C170.912984,0 168.223125,2.68985923 168.223125,6.00796875 C168.223125,9.32607827 170.912984,12.0159375 174.231094,12.0159375 Z M174.231094,9.01195312 C175.890149,9.01195312 177.235078,7.66702351 177.235078,6.00796875 C177.235078,4.34891399 175.890149,3.00398437 174.231094,3.00398437 C172.572039,3.00398437 171.227109,4.34891399 171.227109,6.00796875 C171.227109,7.66702351 172.572039,9.01195312 174.231094,9.01195312 Z" id="Oval-1-Copy-7" sketch:type="MSShapeGroup"></path>
            <path d="M198.262969,12.0159375 C201.581078,12.0159375 204.270938,9.32607827 204.270938,6.00796875 C204.270938,2.68985923 201.581078,0 198.262969,0 C194.944859,0 192.255,2.68985923 192.255,6.00796875 C192.255,9.32607827 194.944859,12.0159375 198.262969,12.0159375 Z M198.262969,9.01195312 C199.922024,9.01195312 201.266953,7.66702351 201.266953,6.00796875 C201.266953,4.34891399 199.922024,3.00398437 198.262969,3.00398437 C196.603914,3.00398437 195.258984,4.34891399 195.258984,6.00796875 C195.258984,7.66702351 196.603914,9.01195312 198.262969,9.01195312 Z" id="Oval-1-Copy-8" sketch:type="MSShapeGroup"></path>
            <path d="M222.294844,12.0159375 C225.612953,12.0159375 228.302813,9.32607827 228.302813,6.00796875 C228.302813,2.68985923 225.612953,0 222.294844,0 C218.976734,0 216.286875,2.68985923 216.286875,6.00796875 C216.286875,9.32607827 218.976734,12.0159375 222.294844,12.0159375 Z M222.294844,9.01195312 C223.953899,9.01195312 225.298828,7.66702351 225.298828,6.00796875 C225.298828,4.34891399 223.953899,3.00398437 222.294844,3.00398437 C220.635789,3.00398437 219.290859,4.34891399 219.290859,6.00796875 C219.290859,7.66702351 220.635789,9.01195312 222.294844,9.01195312 Z" id="Oval-1-Copy-9" sketch:type="MSShapeGroup"></path>
            <path d="M246.326719,12.0159375 C249.644828,12.0159375 252.334688,9.32607827 252.334688,6.00796875 C252.334688,2.68985923 249.644828,0 246.326719,0 C243.008609,0 240.31875,2.68985923 240.31875,6.00796875 C240.31875,9.32607827 243.008609,12.0159375 246.326719,12.0159375 Z M246.326719,9.01195312 C247.985774,9.01195312 249.330703,7.66702351 249.330703,6.00796875 C249.330703,4.34891399 247.985774,3.00398437 246.326719,3.00398437 C244.667664,3.00398437 243.322734,4.34891399 243.322734,6.00796875 C243.322734,7.66702351 244.667664,9.01195312 246.326719,9.01195312 Z" id="Oval-1-Copy-10" sketch:type="MSShapeGroup"></path>
            <path d="M270.358594,12.0159375 C273.676703,12.0159375 276.366562,9.32607827 276.366562,6.00796875 C276.366562,2.68985923 273.676703,0 270.358594,0 C267.040484,0 264.350625,2.68985923 264.350625,6.00796875 C264.350625,9.32607827 267.040484,12.0159375 270.358594,12.0159375 Z M270.358594,9.01195312 C272.017649,9.01195312 273.362578,7.66702351 273.362578,6.00796875 C273.362578,4.34891399 272.017649,3.00398437 270.358594,3.00398437 C268.699539,3.00398437 267.354609,4.34891399 267.354609,6.00796875 C267.354609,7.66702351 268.699539,9.01195312 270.358594,9.01195312 Z" id="Oval-1-Copy-11" sketch:type="MSShapeGroup"></path>
        </g>
        <g id="grid" sketch:type="MSLayerGroup" transform="translate(2.000000, 19.000000)" stroke="#CCCCCC" stroke-width="0.5" stroke-linecap="square">
            <path d="M1.5,37.25 L296.5,37.25" id="Line" sketch:type="MSShapeGroup"></path>
            <path d="M1.5,31.25 L296.5,31.25" id="Line-Copy" sketch:type="MSShapeGroup"></path>
            <path d="M1.5,25.25 L296.5,25.25" id="Line-Copy-2" sketch:type="MSShapeGroup"></path>
            <path d="M1.5,13.25 L296.5,13.25" id="Line-Copy-3" sketch:type="MSShapeGroup"></path>
            <path d="M1.5,7.25 L296.5,7.25" id="Line-Copy-5" sketch:type="MSShapeGroup"></path>
            <path d="M1.5,1.25 L296.5,1.25" id="Line-Copy-6" sketch:type="MSShapeGroup"></path>
            <path d="M1.502375,19.25 L296.502375,19.25" id="Line-Copy-4" sketch:type="MSShapeGroup"></path>
            <path d="M1.5,79.25 L296.5,79.25" id="Line-Copy-13" sketch:type="MSShapeGroup"></path>
            <path d="M1.5,73.25 L296.5,73.25" id="Line-Copy-7" sketch:type="MSShapeGroup"></path>
            <path d="M1.5,67.25 L296.5,67.25" id="Line-Copy-8" sketch:type="MSShapeGroup"></path>
            <path d="M1.5,55.25 L296.5,55.25" id="Line-Copy-9" sketch:type="MSShapeGroup"></path>
            <path d="M1.5,49.25 L296.5,49.25" id="Line-Copy-10" sketch:type="MSShapeGroup"></path>
            <path d="M1.5,43.25 L296.5,43.25" id="Line-Copy-11" sketch:type="MSShapeGroup"></path>
            <path d="M1.502375,61.25 L296.502375,61.25" id="Line-Copy-12" sketch:type="MSShapeGroup"></path>
            <path d="M1.5,121.25 L296.5,121.25" id="Line-Copy-20" sketch:type="MSShapeGroup"></path>
            <path d="M1.5,115.25 L296.5,115.25" id="Line-Copy-14" sketch:type="MSShapeGroup"></path>
            <path d="M1.5,109.25 L296.5,109.25" id="Line-Copy-15" sketch:type="MSShapeGroup"></path>
            <path d="M1.5,97.25 L296.5,97.25" id="Line-Copy-16" sketch:type="MSShapeGroup"></path>
            <path d="M1.5,91.25 L296.5,91.25" id="Line-Copy-17" sketch:type="MSShapeGroup"></path>
            <path d="M1.5,85.25 L296.5,85.25" id="Line-Copy-18" sketch:type="MSShapeGroup"></path>
            <path d="M1.502375,103.25 L296.502375,103.25" id="Line-Copy-19" sketch:type="MSShapeGroup"></path>
            <path d="M1.5,157.25 L296.5,157.25" id="Line-Copy-40" sketch:type="MSShapeGroup"></path>
            <path d="M1.5,151.25 L296.5,151.25" id="Line-Copy-21" sketch:type="MSShapeGroup"></path>
            <path d="M1.5,139.25 L296.5,139.25" id="Line-Copy-22" sketch:type="MSShapeGroup"></path>
            <path d="M1.5,133.25 L296.5,133.25" id="Line-Copy-23" sketch:type="MSShapeGroup"></path>
            <path d="M1.5,127.25 L296.5,127.25" id="Line-Copy-24" sketch:type="MSShapeGroup"></path>
            <path d="M1.5,145.25 L296.5,145.25" id="Line-Copy-25" sketch:type="MSShapeGroup"></path>
            <path d="M1.5,205.25 L296.5,205.25" id="Line-Copy-26" sketch:type="MSShapeGroup"></path>
            <path d="M1.5,199.25 L296.5,199.25" id="Line-Copy-27" sketch:type="MSShapeGroup"></path>
            <path d="M1.5,193.25 L296.5,193.25" id="Line-Copy-28" sketch:type="MSShapeGroup"></path>
            <path d="M1.5,181.25 L296.5,181.25" id="Line-Copy-29" sketch:type="MSShapeGroup"></path>
            <path d="M1.5,175.25 L296.5,175.25" id="Line-Copy-30" sketch:type="MSShapeGroup"></path>
            <path d="M1.5,169.25 L296.5,169.25" id="Line-Copy-31" sketch:type="MSShapeGroup"></path>
            <path d="M1.5,163.25 L296.5,163.25" id="Line-Copy-41" sketch:type="MSShapeGroup"></path>
            <path d="M1.5,187.25 L296.5,187.25" id="Line-Copy-32" sketch:type="MSShapeGroup"></path>
            <path d="M1.5,247.25 L296.5,247.25" id="Line-Copy-33" sketch:type="MSShapeGroup"></path>
            <path d="M1.5,241.25 L296.5,241.25" id="Line-Copy-34" sketch:type="MSShapeGroup"></path>
            <path d="M1.5,253.25 L296.5,253.25" id="Line-Copy-42" sketch:type="MSShapeGroup"></path>
            <path d="M1.5,265.25 L296.5,265.25" id="Line-Copy-43" sketch:type="MSShapeGroup"></path>
            <path d="M1.5,271.25 L296.5,271.25" id="Line-Copy-45" sketch:type="MSShapeGroup"></path>
            <path d="M1.5,277.25 L296.5,277.25" id="Line-Copy-95" sketch:type="MSShapeGroup"></path>
            <path d="M1.30078125,259.25 L296.300781,259.25" id="Line-Copy-44" sketch:type="MSShapeGroup"></path>
            <path d="M1.5,235.25 L296.5,235.25" id="Line-Copy-35" sketch:type="MSShapeGroup"></path>
            <path d="M1.5,223.25 L296.5,223.25" id="Line-Copy-36" sketch:type="MSShapeGroup"></path>
            <path d="M1.5,217.25 L296.5,217.25" id="Line-Copy-37" sketch:type="MSShapeGroup"></path>
            <path d="M1.5,211.25 L296.5,211.25" id="Line-Copy-38" sketch:type="MSShapeGroup"></path>
            <path d="M1.5,229.25 L296.5,229.25" id="Line-Copy-39" sketch:type="MSShapeGroup"></path>
            <path d="M6.25,0.5 L6.25,279.5" id="Line" sketch:type="MSShapeGroup"></path>
            <path d="M1.25,0.5 L1.25,279.5" id="Line-Copy-94" sketch:type="MSShapeGroup"></path>
            <path d="M18.25,0.5 L18.25,279.5" id="Line-Copy-47" sketch:type="MSShapeGroup"></path>
            <path d="M24.25,0.5 L24.25,279.5" id="Line-Copy-48" sketch:type="MSShapeGroup"></path>
            <path d="M12.25,0.5 L12.25,279.5" id="Line-Copy-46" sketch:type="MSShapeGroup"></path>
            <path d="M30.25,0.5 L30.25,279.5" id="Line-Copy-52" sketch:type="MSShapeGroup"></path>
            <path d="M42.25,0.5 L42.25,279.5" id="Line-Copy-49" sketch:type="MSShapeGroup"></path>
            <path d="M48.25,0.5 L48.25,279.5" id="Line-Copy-50" sketch:type="MSShapeGroup"></path>
            <path d="M36.25,0.5 L36.25,279.5" id="Line-Copy-51" sketch:type="MSShapeGroup"></path>
            <path d="M54.25,0.5 L54.25,279.5" id="Line-Copy-60" sketch:type="MSShapeGroup"></path>
            <path d="M66.25,0.5 L66.25,279.5" id="Line-Copy-53" sketch:type="MSShapeGroup"></path>
            <path d="M72.25,0.5 L72.25,279.5" id="Line-Copy-54" sketch:type="MSShapeGroup"></path>
            <path d="M60.25,0.5 L60.25,279.5" id="Line-Copy-55" sketch:type="MSShapeGroup"></path>
            <path d="M78.25,0.5 L78.25,279.5" id="Line-Copy-56" sketch:type="MSShapeGroup"></path>
            <path d="M90.25,0.5 L90.25,279.5" id="Line-Copy-57" sketch:type="MSShapeGroup"></path>
            <path d="M96.25,0.5 L96.25,279.5" id="Line-Copy-58" sketch:type="MSShapeGroup"></path>
            <path d="M84.25,0.5 L84.25,279.5" id="Line-Copy-59" sketch:type="MSShapeGroup"></path>
            <path d="M102.25,0.5 L102.25,279.5" id="Line-Copy-76" sketch:type="MSShapeGroup"></path>
            <path d="M198.25,1.5 L198.25,280.5" id="Line-Copy-77" sketch:type="MSShapeGroup"></path>
            <path d="M114.25,0.5 L114.25,279.5" id="Line-Copy-61" sketch:type="MSShapeGroup"></path>
            <path d="M210.25,1.5 L210.25,280.5" id="Line-Copy-78" sketch:type="MSShapeGroup"></path>
            <path d="M120.25,0.5 L120.25,279.5" id="Line-Copy-62" sketch:type="MSShapeGroup"></path>
            <path d="M216.25,1.5 L216.25,280.5" id="Line-Copy-79" sketch:type="MSShapeGroup"></path>
            <path d="M108.25,0.5 L108.25,279.5" id="Line-Copy-63" sketch:type="MSShapeGroup"></path>
            <path d="M204.25,1.5 L204.25,280.5" id="Line-Copy-80" sketch:type="MSShapeGroup"></path>
            <path d="M126.25,0.5 L126.25,279.5" id="Line-Copy-64" sketch:type="MSShapeGroup"></path>
            <path d="M222.25,1.5 L222.25,280.5" id="Line-Copy-81" sketch:type="MSShapeGroup"></path>
            <path d="M138.25,0.5 L138.25,279.5" id="Line-Copy-65" sketch:type="MSShapeGroup"></path>
            <path d="M234.25,1.5 L234.25,280.5" id="Line-Copy-82" sketch:type="MSShapeGroup"></path>
            <path d="M144.25,0.5 L144.25,279.5" id="Line-Copy-66" sketch:type="MSShapeGroup"></path>
            <path d="M240.25,1.5 L240.25,280.5" id="Line-Copy-83" sketch:type="MSShapeGroup"></path>
            <path d="M132.25,0.5 L132.25,279.5" id="Line-Copy-67" sketch:type="MSShapeGroup"></path>
            <path d="M228.25,1.5 L228.25,280.5" id="Line-Copy-84" sketch:type="MSShapeGroup"></path>
            <path d="M150.25,0.5 L150.25,279.5" id="Line-Copy-68" sketch:type="MSShapeGroup"></path>
            <path d="M246.25,1.5 L246.25,280.5" id="Line-Copy-85" sketch:type="MSShapeGroup"></path>
            <path d="M162.25,0.5 L162.25,279.5" id="Line-Copy-69" sketch:type="MSShapeGroup"></path>
            <path d="M258.25,1.5 L258.25,280.5" id="Line-Copy-86" sketch:type="MSShapeGroup"></path>
            <path d="M168.25,0.5 L168.25,279.5" id="Line-Copy-70" sketch:type="MSShapeGroup"></path>
            <path d="M264.25,1.5 L264.25,280.5" id="Line-Copy-87" sketch:type="MSShapeGroup"></path>
            <path d="M156.25,0.5 L156.25,279.5" id="Line-Copy-71" sketch:type="MSShapeGroup"></path>
            <path d="M252.25,1.5 L252.25,280.5" id="Line-Copy-88" sketch:type="MSShapeGroup"></path>
            <path d="M174.25,0.5 L174.25,279.5" id="Line-Copy-72" sketch:type="MSShapeGroup"></path>
            <path d="M270.25,1.5 L270.25,280.5" id="Line-Copy-89" sketch:type="MSShapeGroup"></path>
            <path d="M186.25,0.5 L186.25,279.5" id="Line-Copy-73" sketch:type="MSShapeGroup"></path>
            <path d="M282.25,1.5 L282.25,280.5" id="Line-Copy-90" sketch:type="MSShapeGroup"></path>
            <path d="M192.25,0.5 L192.25,279.5" id="Line-Copy-74" sketch:type="MSShapeGroup"></path>
            <path d="M288.25,1.5 L288.25,280.5" id="Line-Copy-91" sketch:type="MSShapeGroup"></path>
            <path d="M293.25,1.5 L293.25,280.5" id="Line-Copy-93" sketch:type="MSShapeGroup"></path>
            <path d="M180.25,0.5 L180.25,279.5" id="Line-Copy-75" sketch:type="MSShapeGroup"></path>
            <path d="M276.25,1.5 L276.25,280.5" id="Line-Copy-92" sketch:type="MSShapeGroup"></path>
        </g>
        <rect id="vinyl" stroke="#4A4A4A" stroke-width="2" fill="#E95E5E" sketch:type="MSShapeGroup" x="0.80078125" y="150.800781" width="300" height="150"></rect>
    </g>
</svg>